<svg xmlns="http://www.w3.org/2000/svg" viewBox="0 0 1600 900" role="img" aria-label="Painel visual de Petrolina">
  <defs>
    <linearGradient id="bg" x1="0" y1="0" x2="1" y2="1">
      <stop offset="0%" stop-color="#141518"/>
      <stop offset="100%" stop-color="#090A0D"/>
    </linearGradient>
    <linearGradient id="sun" x1="0" y1="0" x2="1" y2="1">
      <stop offset="0%" stop-color="#FFBF00"/>
      <stop offset="100%" stop-color="#FF6D00"/>
    </linearGradient>
  </defs>
  <rect width="1600" height="900" fill="url(#bg)"/>
  <circle cx="1320" cy="180" r="120" fill="url(#sun)" opacity="0.85"/>
  <rect x="0" y="540" width="1600" height="360" fill="#1A120C"/>
  <path d="M0 620 C240 560 430 700 660 650 S1080 560 1600 640 V900 H0 Z" fill="#3C2915"/>
  <path d="M0 690 C210 635 420 760 690 710 S1160 620 1600 700 V900 H0 Z" fill="#0E2330"/>
  <rect x="760" y="370" width="36" height="210" fill="#232427"/>
  <rect x="822" y="340" width="36" height="240" fill="#232427"/>
  <rect x="884" y="390" width="36" height="190" fill="#232427"/>
  <path d="M180 690 h310 v50 H180 Z" fill="#2A2C30"/>
  <path d="M220 670 h230 v20 H220 Z" fill="#3A3D42"/>
  <text x="96" y="122" fill="#F3E7D3" font-family="Arial, sans-serif" font-size="64" font-weight="700">PETROLINA</text>
  <text x="98" y="172" fill="#FFBF00" font-family="Arial, sans-serif" font-size="28" letter-spacing="5">RIO, CALOR E ESGOTO BRUTO</text>
  <text x="98" y="760" fill="#D7C7AE" font-family="Arial, sans-serif" font-size="30">O Rio São Francisco está presente, mas o acesso não é igual.</text>
</svg>
