<svg xmlns="http://www.w3.org/2000/svg" viewBox="0 0 649.49 169.93"><defs><style>.cls-1{fill:#fff;}</style></defs><g id="Camada_2" data-name="Camada 2"><g id="Camada_1-2" data-name="Camada 1"><path class="cls-1" d="M214.12,165.5a4,4,0,0,1-1.11,1.44,5,5,0,0,1-1.71.89,7.27,7.27,0,0,1-2.2.31,10.06,10.06,0,0,1-3.33-.58,8.91,8.91,0,0,1-3-1.79l1.93-2.31a9.8,9.8,0,0,0,2.09,1.31,5.63,5.63,0,0,0,2.34.49,2.93,2.93,0,0,0,1.58-.37,1.18,1.18,0,0,0,.56-1v0a1.29,1.29,0,0,0-.12-.57,1.1,1.1,0,0,0-.44-.45,5.4,5.4,0,0,0-.92-.43,14.44,14.44,0,0,0-1.52-.44,17.1,17.1,0,0,1-2-.62,5.69,5.69,0,0,1-1.55-.83,3.53,3.53,0,0,1-1-1.24,4.39,4.39,0,0,1-.35-1.85v0a4.31,4.31,0,0,1,.38-1.83,4.13,4.13,0,0,1,1.07-1.41,4.62,4.62,0,0,1,1.63-.91,6.59,6.59,0,0,1,2.09-.32,8.74,8.74,0,0,1,3,.49,8.55,8.55,0,0,1,2.52,1.4l-1.7,2.45a11.14,11.14,0,0,0-2-1.07,5,5,0,0,0-1.91-.39,2.37,2.37,0,0,0-1.43.37,1.13,1.13,0,0,0-.47.93v0a1.32,1.32,0,0,0,.13.62,1.29,1.29,0,0,0,.5.48,4.9,4.9,0,0,0,1,.4c.42.13.95.28,1.58.45a15.3,15.3,0,0,1,2,.66,5.77,5.77,0,0,1,1.49.89,3.46,3.46,0,0,1,.91,1.22,4.1,4.1,0,0,1,.31,1.68v0A4.55,4.55,0,0,1,214.12,165.5Z"/><path class="cls-1" d="M236.12,163.49a8,8,0,0,1-1.64,2.43,7.79,7.79,0,0,1-2.51,1.66,8.18,8.18,0,0,1-8.81-1.63,7.28,7.28,0,0,1-1.63-2.42,7.62,7.62,0,0,1-.59-3v0a7.45,7.45,0,0,1,.6-3,7.65,7.65,0,0,1,1.64-2.44,7.57,7.57,0,0,1,2.5-1.65,8.65,8.65,0,0,1,6.33,0,7.91,7.91,0,0,1,2.49,1.63,7.33,7.33,0,0,1,1.63,2.42,7.58,7.58,0,0,1,.58,3v0A7.62,7.62,0,0,1,236.12,163.49Zm-2.82-3a4.88,4.88,0,0,0-.33-1.8,4.38,4.38,0,0,0-2.36-2.49,4.3,4.3,0,0,0-1.8-.37,4.48,4.48,0,0,0-1.82.36,4.1,4.1,0,0,0-1.39,1,4.72,4.72,0,0,0-1.24,3.27v0a4.87,4.87,0,0,0,.32,1.8,4.3,4.3,0,0,0,.94,1.48,4.38,4.38,0,0,0,1.42,1,4.25,4.25,0,0,0,1.81.37,4.45,4.45,0,0,0,1.8-.36,4.18,4.18,0,0,0,1.41-1,4.77,4.77,0,0,0,.91-1.48,4.83,4.83,0,0,0,.33-1.79Z"/><path class="cls-1" d="M243.85,167.93V153.09h3.27V165h7.39v3Z"/><path class="cls-1" d="M272.25,167.93l-1.35-3.33h-6.28l-1.35,3.33h-3.33L266.3,153h3l6.35,14.94Zm-4.49-11-2,4.81h3.94Z"/><path class="cls-1" d="M291.2,167.93,288,163.18h-2.57v4.75h-3.26V153.09H289a6.08,6.08,0,0,1,4.13,1.29,4.57,4.57,0,0,1,1.47,3.61v0a4.72,4.72,0,0,1-.88,2.94,5.11,5.11,0,0,1-2.3,1.66l3.62,5.3Zm.06-9.77a1.87,1.87,0,0,0-.68-1.59,2.94,2.94,0,0,0-1.88-.53h-3.25v4.26h3.31a2.74,2.74,0,0,0,1.86-.57,2,2,0,0,0,.64-1.53Z"/><path class="cls-1" d="M313,160.53a4.67,4.67,0,0,1-1.28,1.63,5.6,5.6,0,0,1-1.91,1,8.07,8.07,0,0,1-2.34.33H305v4.45h-3.27V153.09h6.06a7.36,7.36,0,0,1,2.39.37,5.15,5.15,0,0,1,1.78,1,4.49,4.49,0,0,1,1.12,1.62,5.44,5.44,0,0,1,.39,2.09v0A5.23,5.23,0,0,1,313,160.53Zm-2.84-2.25a2,2,0,0,0-.71-1.67,3,3,0,0,0-1.94-.57H305v4.53h2.58a2.66,2.66,0,0,0,1.91-.64,2.14,2.14,0,0,0,.68-1.6Z"/><path class="cls-1" d="M332.39,164.41a5.64,5.64,0,0,1-1.31,2.09,5.35,5.35,0,0,1-2.05,1.25,8.44,8.44,0,0,1-2.69.41,5.87,5.87,0,0,1-6.42-6.59v-8.48h3.26v8.39a3.92,3.92,0,0,0,.85,2.75,3,3,0,0,0,2.35.92,3.1,3.1,0,0,0,2.35-.89,3.71,3.71,0,0,0,.85-2.67v-8.5h3.26v8.37A8.71,8.71,0,0,1,332.39,164.41Z"/><path class="cls-1" d="M350.82,167.93l-7.19-9.43v9.43h-3.22V153.09h3l6.95,9.14v-9.14h3.22v14.84Z"/><path class="cls-1" d="M371,167.93l-4.6-6.32-1.72,1.78v4.54h-3.26V153.09h3.26v6.49l6-6.49h3.95l-6,6.3,6.31,8.54Z"/><path class="cls-1" d="M403.54,166.63a6.58,6.58,0,0,1-1.34.84,7.16,7.16,0,0,1-1.6.53,9.66,9.66,0,0,1-2,.18,7.76,7.76,0,0,1-3-.59A7.67,7.67,0,0,1,393.2,166a7.42,7.42,0,0,1-1.59-2.43,7.84,7.84,0,0,1-.57-3v0a7.79,7.79,0,0,1,.57-3,7.68,7.68,0,0,1,1.59-2.44,7.31,7.31,0,0,1,2.44-1.65,8,8,0,0,1,3.14-.6,9.22,9.22,0,0,1,1.89.17,8.41,8.41,0,0,1,1.56.46,6.7,6.7,0,0,1,1.29.72,8.37,8.37,0,0,1,1.1.94l-2.07,2.39a8.09,8.09,0,0,0-1.77-1.23,4.48,4.48,0,0,0-2-.44,4.14,4.14,0,0,0-3.09,1.35,4.71,4.71,0,0,0-.89,1.48,5,5,0,0,0-.32,1.79v0a5.09,5.09,0,0,0,.32,1.8,4.48,4.48,0,0,0,.88,1.48,4.08,4.08,0,0,0,3.1,1.38,4.6,4.6,0,0,0,2.16-.46,8.79,8.79,0,0,0,1.74-1.28l2.08,2.1A10.14,10.14,0,0,1,403.54,166.63Z"/><path class="cls-1" d="M411.72,167.93V153.09H415v14.84Z"/><path class="cls-1" d="M429.65,156.1v11.83h-3.26V156.1h-4.51v-3h12.29v3Z"/><path class="cls-1" d="M448.35,162v5.92h-3.27v-5.85l-5.7-9h3.82l3.54,6,3.6-6h3.71Z"/><path class="cls-1" d="M482.76,166.63a6.86,6.86,0,0,1-1.34.84,7.16,7.16,0,0,1-1.6.53,9.66,9.66,0,0,1-1.95.18,7.76,7.76,0,0,1-3-.59,7.56,7.56,0,0,1-2.42-1.62,7.42,7.42,0,0,1-1.59-2.43,7.84,7.84,0,0,1-.57-3v0a7.79,7.79,0,0,1,.57-3,7.68,7.68,0,0,1,1.59-2.44,7.31,7.31,0,0,1,2.44-1.65,8,8,0,0,1,3.13-.6,9.26,9.26,0,0,1,1.9.17,8.18,8.18,0,0,1,1.56.46,6.7,6.7,0,0,1,1.29.72,8.37,8.37,0,0,1,1.1.94l-2.07,2.39a8.09,8.09,0,0,0-1.77-1.23,4.47,4.47,0,0,0-2-.44,4.14,4.14,0,0,0-3.1,1.35,4.71,4.71,0,0,0-.89,1.48,5,5,0,0,0-.32,1.79v0a5.09,5.09,0,0,0,.32,1.8,4.48,4.48,0,0,0,.88,1.48,4.08,4.08,0,0,0,3.11,1.38,4.58,4.58,0,0,0,2.15-.46,8.51,8.51,0,0,0,1.74-1.28l2.08,2.1A10.14,10.14,0,0,1,482.76,166.63Z"/><path class="cls-1" d="M505.31,163.49a7.61,7.61,0,0,1-1.64,2.43,7.75,7.75,0,0,1-2.5,1.66,8.65,8.65,0,0,1-6.33,0,8.08,8.08,0,0,1-2.49-1.63,7.43,7.43,0,0,1-1.63-2.42,7.61,7.61,0,0,1-.58-3v0a7.62,7.62,0,0,1,.59-3,7.85,7.85,0,0,1,1.65-2.44,7.47,7.47,0,0,1,2.5-1.65,8.62,8.62,0,0,1,6.32,0,7.91,7.91,0,0,1,2.49,1.63,7.18,7.18,0,0,1,1.63,2.42,7.58,7.58,0,0,1,.59,3v0A7.45,7.45,0,0,1,505.31,163.49Zm-2.81-3a4.88,4.88,0,0,0-.33-1.8,4.44,4.44,0,0,0-2.37-2.49,4.3,4.3,0,0,0-1.8-.37,4.43,4.43,0,0,0-1.81.36,4.24,4.24,0,0,0-1.4,1,4.85,4.85,0,0,0-1.24,3.27v0a4.88,4.88,0,0,0,.33,1.8,4.43,4.43,0,0,0,.93,1.48,4.6,4.6,0,0,0,1.42,1,4.31,4.31,0,0,0,1.81.37,4.53,4.53,0,0,0,1.81-.36,4.18,4.18,0,0,0,1.41-1,5,5,0,0,0,.91-1.48,4.83,4.83,0,0,0,.33-1.79Z"/><path class="cls-1" d="M523.46,167.93l-7.19-9.43v9.43h-3.22V153.09h3l7,9.14v-9.14h3.22v14.84Z"/><path class="cls-1" d="M545.88,166.63a6.65,6.65,0,0,1-1.35.84,7.16,7.16,0,0,1-1.6.53,9.66,9.66,0,0,1-1.95.18,7.76,7.76,0,0,1-3-.59,7.67,7.67,0,0,1-2.42-1.62,7.75,7.75,0,0,1-1.59-2.43,7.84,7.84,0,0,1-.57-3v0a7.79,7.79,0,0,1,.57-3,8,8,0,0,1,1.59-2.44,7.31,7.31,0,0,1,2.44-1.65,8,8,0,0,1,3.14-.6,9.39,9.39,0,0,1,1.9.17,8.08,8.08,0,0,1,1.55.46,7.1,7.1,0,0,1,1.3.72,9.91,9.91,0,0,1,1.1.94l-2.08,2.39a8.09,8.09,0,0,0-1.77-1.23,4.44,4.44,0,0,0-2-.44,4.14,4.14,0,0,0-3.1,1.35,4.91,4.91,0,0,0-.89,1.48,5,5,0,0,0-.32,1.79v0a5.09,5.09,0,0,0,.32,1.8,4.84,4.84,0,0,0,.88,1.48,4.13,4.13,0,0,0,1.36,1,4,4,0,0,0,1.75.37,4.56,4.56,0,0,0,2.15-.46,8.84,8.84,0,0,0,1.75-1.28l2.07,2.1A10.07,10.07,0,0,1,545.88,166.63Z"/><path class="cls-1" d="M553.91,167.93V153.09h11.17V156h-8v3h7v2.91h-7V165h8v2.91Z"/><path class="cls-1" d="M583.62,160.53a4.67,4.67,0,0,1-1.28,1.63,5.51,5.51,0,0,1-1.91,1,8.07,8.07,0,0,1-2.34.33h-2.48v4.45h-3.26V153.09h6.06a7.29,7.29,0,0,1,2.38.37,5.06,5.06,0,0,1,1.78,1,4.51,4.51,0,0,1,1.13,1.62,5.44,5.44,0,0,1,.39,2.09v0A5.23,5.23,0,0,1,583.62,160.53Zm-2.84-2.25a2,2,0,0,0-.71-1.67,3,3,0,0,0-1.94-.57h-2.52v4.53h2.59a2.63,2.63,0,0,0,1.9-.64,2.1,2.1,0,0,0,.68-1.6Z"/><path class="cls-1" d="M597.46,156.1v11.83H594.2V156.1h-4.52v-3H602v3Z"/><path class="cls-1" d="M258.33,40.63c0,10.59-7.39,18.19-18.18,18.19H220.47V70H202.83V22.45h37.32C250.94,22.45,258.33,30.05,258.33,40.63Zm-17.64,0c0-3.25-2.17-3.25-3.93-3.25H220.47v6.51h16.29C238.52,43.89,240.69,43.89,240.69,40.63Z"/><path class="cls-1" d="M314.24,56.31,322.66,70h-20.9l-6.59-11.13H284.79V70H267.15V22.45h37.32c10.79,0,18.19,7.6,18.19,18.18C322.66,47.55,319.47,53.25,314.24,56.31ZM284.79,43.89h16.29c1.76,0,3.93,0,3.93-3.26s-2.17-3.25-3.93-3.25H284.79Z"/><path class="cls-1" d="M330.79,46.13c0-16.49,9-24.36,29.86-24.36s29.86,7.94,29.86,24.36-9,24.5-29.86,24.5S330.79,62.69,330.79,46.13Zm42.07,0c0-5-1.76-9.43-12.21-9.43s-12.21,4.41-12.21,9.43,1.83,9.57,12.21,9.57S372.86,51.15,372.86,46.13Z"/><path class="cls-1" d="M456.32,46.13c0,16.49-9,24.5-28.5,24.5s-28.5-7.94-28.5-24.5H417c0,5.09,1.84,9.57,10.86,9.57s10.86-4.55,10.86-9.57V37.38H423.27V22.45h33.05Z"/><path class="cls-1" d="M483.46,36v4.41H516V52H483.46v4.42H516V70H465.81V22.45H516V36Z"/><path class="cls-1" d="M554,21.77c19,0,28.91,6.65,29.65,21.64h-18c-.68-4.47-4.14-6.71-11.6-6.71-10.45,0-12.21,4.41-12.21,9.43S543.64,55.7,554,55.7c7.46,0,10.92-2.31,11.6-6.86h18c-.74,15.07-10.58,21.79-29.65,21.79-20.9,0-29.86-7.94-29.86-24.5S533.12,21.77,554,21.77Z"/><path class="cls-1" d="M649.49,37.38H629.13V70H611.49V37.38H591.13V22.45h58.36Z"/><path class="cls-1" d="M245,120.44H224.81L221.56,129H202.15l19.68-47.5H248L267.7,129H248.29Zm-4.61-12.22-5.5-14.52-5.49,14.52Z"/><path class="cls-1" d="M300.26,129.66c-20.9,0-29.85-7.94-29.85-24.49V81.49h17.64v23.68c0,5.09,1.83,9.57,12.21,9.57s12.22-4.55,12.22-9.57V81.49h17.64v23.68C330.12,121.66,321.1,129.66,300.26,129.66Z"/><path class="cls-1" d="M386.71,115.35,395.12,129h-20.9l-6.58-11.13H357.26V129H339.61V81.49h37.33c10.78,0,18.18,7.6,18.18,18.18C395.12,106.59,391.93,112.29,386.71,115.35Zm-29.45-12.42h16.28c1.77,0,3.94,0,3.94-3.26s-2.17-3.26-3.94-3.26H357.26Z"/><path class="cls-1" d="M403.26,105.17c0-16.49,8.95-24.36,29.85-24.36S463,88.75,463,105.17s-9,24.49-29.86,24.49S403.26,121.72,403.26,105.17Zm42.07,0c0-5-1.77-9.43-12.22-9.43s-12.21,4.41-12.21,9.43,1.83,9.57,12.21,9.57S445.33,110.19,445.33,105.17Z"/><path class="cls-1" d="M518.88,115.35,527.29,129h-20.9l-6.58-11.13H489.43V129H471.78V81.49h37.33c10.79,0,18.18,7.6,18.18,18.18C527.29,106.59,524.1,112.29,518.88,115.35Zm-29.45-12.42h16.28c1.77,0,3.94,0,3.94-3.26s-2.17-3.26-3.94-3.26H489.43Z"/><path class="cls-1" d="M578.31,120.44H558.09L554.83,129h-19.4l19.68-47.5H581.3L601,129H581.57Zm-4.61-12.22L568.2,93.7l-5.49,14.52Z"/><path class="cls-1" d="M166.89,60.25a11,11,0,0,0-1.41.15C150.77,64.33,136,68,121.38,72.27a43.21,43.21,0,0,0-30.47,50.94c2.19,10.18,5.26,20.18,8,30.25,1.44,5.43,2.92,10.84,4.44,16.47l24.89-6.67c-4-14.73-7.82-29.14-11.84-44.15L156,142l12.9-22.29L129.29,96.77l44.2-11.85C171.26,76.57,169.09,68.48,166.89,60.25ZM23.46,31.63c.24.29.43.57.66.8C34.91,43.19,45.5,54.16,56.54,64.66c17.13,16.3,43,16.27,60.35.07,7.38-6.9,14.36-14.21,21.53-21.33,3.93-3.9,7.87-7.78,11.61-11.48l-18.8-18.77L99.46,45.25V0H73.86V45l-.64.36L41.71,13.44Zm33.69,87.48-6,22.22c-1.94,7.21-3.88,14.43-5.89,21.93L70,169.87a11.64,11.64,0,0,0,.59-1.35c4-14.87,8.26-29.67,11.88-44.63C87.92,101.4,74,78.23,51.8,72.13,37.44,68.19,23,64.42,8.64,60.59a18.73,18.73,0,0,0-2.06-.3C4.37,68.55,2.21,76.63,0,84.92L44.2,96.77,4.55,119.68l12.92,22.26Z"/><path class="cls-1" d="M166.89,60.25c2.2,8.23,4.37,16.32,6.6,24.67l-44.2,11.85,39.64,22.89L156,142l-39.68-22.84c4,15,7.89,29.42,11.84,44.15l-24.89,6.67c-1.52-5.63-3-11-4.44-16.47-2.69-10.07-5.76-20.07-8-30.25a43.21,43.21,0,0,1,30.47-50.94C136,68,150.77,64.33,165.48,60.4A11,11,0,0,1,166.89,60.25Z"/><path class="cls-1" d="M23.46,31.63,41.71,13.44,73.22,45.36l.64-.36V0h25.6V45.25l31.77-32.1L150,31.92c-3.74,3.7-7.68,7.58-11.61,11.48-7.17,7.12-14.15,14.43-21.53,21.33C99.58,80.93,73.67,81,56.54,64.66c-11-10.5-21.63-21.47-32.42-32.23C23.89,32.2,23.7,31.92,23.46,31.63Z"/><path class="cls-1" d="M57.15,119.11,17.47,141.94,4.55,119.68,44.2,96.77,0,84.92c2.21-8.29,4.37-16.37,6.58-24.63a18.73,18.73,0,0,1,2.06.3C23,64.42,37.44,68.19,51.8,72.13,74,78.23,87.92,101.4,82.48,123.89c-3.62,15-7.89,29.76-11.88,44.63a11.64,11.64,0,0,1-.59,1.35L45.3,163.26c2-7.5,4-14.72,5.89-21.93Z"/></g></g></svg>