<svg xmlns="http://www.w3.org/2000/svg" viewBox="0 0 426.72 426.72"><defs><style>.cls-1{fill:#2a4b9b;}</style></defs><g id="Camada_2" data-name="Camada 2"><g id="Camada_1-2" data-name="Camada 1"><path class="cls-1" d="M213.36,111.51A101.86,101.86,0,1,1,111.51,213.36,101.86,101.86,0,0,1,213.36,111.51m0-11.55a113.39,113.39,0,1,0,80.19,33.21A112.66,112.66,0,0,0,213.36,100Z"/><path class="cls-1" d="M213.36,13.85c110.19,0,199.52,89.32,199.52,199.51S323.55,412.88,213.36,412.88,13.85,323.55,13.85,213.36,103.17,13.85,213.36,13.85m0-13.85a213.41,213.41,0,0,0-83.05,410A213.41,213.41,0,0,0,296.41,16.77,212,212,0,0,0,213.36,0Z"/><path class="cls-1" d="M55.79,160.93l4,1.45L68,139.81l11.82,4.26-8.13,22.57,9.94,3.58-5,14L38.94,170.65l14.31-39.77,11.83,4.26Z"/><path class="cls-1" d="M105.46,106.89l13.4,1.47-10.81,13.87-10.79-1.39-5.38,6.9,7.39,5.75L90.14,145.2,58.62,120.63,77.93,95.86c5.58-7.17,14.45-8.14,21.48-2.67C104,96.78,106.13,101.84,105.46,106.89ZM82,120,90.4,109.2c.92-1.17,2-2.61-.12-4.3s-3.29-.24-4.2.93l-8.43,10.81Z"/><path class="cls-1" d="M106.69,92.38C99.27,80.65,102.1,71,117,61.62s24.81-7.78,32.2,3.91S153.76,87,138.94,96.38,114.13,104.16,106.69,92.38Zm29.93-18.92c-2.23-3.52-5.5-5.92-12.93-1.22s-6.71,8.63-4.45,12.2,5.6,6,13,1.32S138.87,77,136.62,73.46Z"/><path class="cls-1" d="M169.81,66.26c.4,1.9,2.46,2.81,11.68.86,8.6-1.82,9.77-2.65,9.46-4.1-.35-1.67-1.68-1.63-10.9,0-17.78,3.17-25.15,1.69-27.08-7.42-1.81-8.6,5.84-14.07,21.27-17.33C189.49,35.08,198.87,37,201,47L186.46,50c-.44-2.07-3.89-1.81-11-.31-6.82,1.44-8.15,2.07-7.83,3.58s1.71,1.16,10.27-.3c15.55-2.64,25.33-3.6,27.49,6.63,2.28,10.78-6.08,15.41-22.12,18.8s-25.55,2.53-28-9.09Z"/><path class="cls-1" d="M257.73,52.47l-17-2.36L237,77.25l-14.7-2,3.78-27.15-17-2.36,1.73-12.45L259.46,40Z"/><path class="cls-1" d="M279.68,85.14,264.3,77.85l-5.56,5.32-14.76-7,32.09-29L296,56.59l-2.16,43.22-14.76-7Zm.89-11,1.06-13-9.42,9.06Z"/><path class="cls-1" d="M327.78,119.76l-3.28,13.08-12.28-12.59,2.85-10.51-6.1-6.25L302.26,110,291.9,99.39l28.63-27.9L342.45,94c6.33,6.51,6.1,15.43-.28,21.65C338,119.69,332.69,121.12,327.78,119.76Zm-9.82-25,9.57,9.81c1,1.07,2.31,2.38,4.27.46s.69-3.22-.34-4.28l-9.57-9.82Z"/><path class="cls-1" d="M345.05,161.17l-6.78-15.62-7.69.36-6.51-15,43.27-.73,8.79,20.22-30.08,31.12-6.51-15Zm7.89-7.66,9.36-9.12-13.05.63Z"/><path class="cls-1" d="M138.58,183.39V138.54c12.94,0,25-.2,37.09.1,4.65.12,8.08-1,11.31-4.52,8.22-8.87,16.81-17.4,26-26.81,9.27,9.41,18,18,26.41,26.95a13,13,0,0,0,10.75,4.38c12.09-.27,24.2-.09,37.36-.09,0,5.77,0,11.21,0,16.64.1,9-2.11,19,1.06,26.8,3.08,7.57,11.61,13,17.93,19.13,3.95,3.85,8.24,7.35,12.9,11.47-10.19,10.06-19.4,18.85-28.18,28a13.89,13.89,0,0,0-3.55,8.42c-.38,12.67-.16,25.36-.16,38.65-12.36,0-24,.28-35.69-.13-5.57-.19-9.6,1.27-13.41,5.48-7.82,8.67-16.19,16.85-25.41,26.35-7.88-8.27-15.36-15.55-22.13-23.43-5.35-6.22-11.19-9.13-19.66-8.47-10.39.82-20.9.2-32.48.2v-9.85c0-6.78-.65-13.65.15-20.33,1.2-10-2.29-17.09-9.83-23.42s-14.15-13.61-21.69-21l31.25-29.73,31.93,30.24-31.77,30.44h43.61v43.78l31-32.76L244,287.44V243.88h41.79c.21-.54.41-1.08.61-1.61l-31.15-30.11,31.35-30h-43V140.26l-2-1.19-29.84,31L182.25,140v42.42c-6.28,0-11.79-.11-17.3,0C156.16,182.68,147.37,183.07,138.58,183.39Z"/><path class="cls-1" d="M69.32,247.53a8.92,8.92,0,0,1-10.46-8l-1.34-10-5.64.76-1.21-8.94,24.07-3.25,2.55,18.91A8.91,8.91,0,0,1,69.32,247.53Zm-1.21-8.94c1.65-.22,1.5-1.32,1.38-2.22l-1.11-8.25-3.3.45,1.11,8.25C66.31,237.71,66.46,238.81,68.11,238.59Z"/><path class="cls-1" d="M71.42,277.29l-5,6.47-3.75-10,4.14-5.15-1.86-5-5.32,2-3.17-8.44,22.73-8.52,6.7,17.85a9.41,9.41,0,0,1-14.45,10.76ZM72.07,261,75,268.76c.31.84.7,1.88,2.26,1.3s1.17-1.63.85-2.47l-2.92-7.79Z"/><path class="cls-1" d="M79.93,283.86c7-4.68,12.89-3.1,18.82,5.79s5.09,14.94-1.89,19.6-13,3.11-18.88-5.75S72.89,288.55,79.93,283.86Zm11.93,17.89c2.1-1.41,3.51-3.43.54-7.87s-5.34-3.94-7.47-2.52-3.55,3.49-.61,7.91S89.72,303.17,91.86,301.75Z"/><path class="cls-1" d="M121.62,333.06c-5.75,6.16-11.92,6-19.2-.78s-7.88-12.91-2.1-19.1l6.59,6.15c-1.78,1.9-2.65,4.22.72,7.37s5.64,2.08,7.39.21l3.06-3.27-5.76-5.38,5.21-5.58,12.35,11.53Z"/><path class="cls-1" d="M136.53,336.34l-1.15,1.94,14.33,8.48-3,5.07-14.33-8.47-1.15,1.94,14.33,8.47-3.53,6-22.09-13.06,12.36-20.9,22.09,13.07-3.53,6Z"/><path class="cls-1" d="M170.88,344.34c9.23,3,13,7.79,11,15.2l-8.77-2.85c.37-2.28-1-3.92-4.59-5.09-5.08-1.65-6.63.22-7.42,2.66s-.62,4.94,4.43,6.57c3.63,1.18,5.67.61,6.72-1.5l8.78,2.85c-2.74,7.2-8.58,8.92-17.85,5.91-10.17-3.29-13.27-8.56-10.66-16.61S160.72,341.05,170.88,344.34Z"/><path class="cls-1" d="M216,359.73l-10.37-.86-1.38,16.58-9-.74,1.37-16.59-10.36-.86.63-7.6,29.72,2.46Z"/><path class="cls-1" d="M261.42,363.91l-10,2.82-.41,4.66-9.54,2.7,3.06-26.1,12.88-3.65L273.75,365l-9.54,2.7Zm-4-5.36-4.73-6.38-.68,7.91Z"/><path class="cls-1" d="M291.74,355.89c-9.35,5.15-15.32,3.81-19.41-3.6l-5.84-10.61,7.9-4.35,5.84,10.6c1.26,2.28,3.18,3.84,7.83,1.27s4.35-5,3.11-7.29l-5.84-10.61,7.9-4.35,5.84,10.61C303.14,344.94,301.07,350.75,291.74,355.89Z"/><path class="cls-1" d="M324.86,321.94l7.86,2.29-7.92,7.16-6.31-2L314.55,333l3.81,4.22-6.69,6-16.27-18,14.16-12.78a9.4,9.4,0,0,1,15.3,9.5Zm-15.42,5.37,6.18-5.57c.66-.61,1.49-1.35.37-2.59s-1.94-.49-2.61.11l-6.17,5.58Z"/><path class="cls-1" d="M327.86,311.61c-6.91-4.82-7.59-10.88-1.48-19.64s12.05-10.2,18.94-5.4,7.63,10.95,1.55,19.68S334.81,316.45,327.86,311.61ZM340.16,294c-2.08-1.45-4.47-2-7.52,2.36s-1.72,6.41.38,7.88,4.55,2,7.58-2.32S342.27,295.44,340.16,294Z"/><path class="cls-1" d="M361.42,261.49l8.07-1.41-4,9.92L359,271,357,276l5.28,2.1L359,286.43l-22.55-9,7.07-17.71a9.4,9.4,0,0,1,17.92,1.77ZM350,273.12l3.08-7.73c.34-.84.75-1.87-.8-2.49s-2,.42-2.29,1.25l-3.08,7.74Z"/><path class="cls-1" d="M370.46,230.27,369,240.51l4.1,2.25-1.37,9.82-22.65-13.31L351,226l25.44-6.61L375,229.23ZM364,231.74l-7.74,1.76,7,3.81Z"/></g></g></svg>