<svg xmlns="http://www.w3.org/2000/svg" viewBox="0 0 426.72 426.72"><defs><style>.cls-1{fill:#e52421;}</style></defs><g id="Camada_2" data-name="Camada 2"><g id="Camada_1-2" data-name="Camada 1"><path class="cls-1" d="M213.36,13.85c110.19,0,199.52,89.32,199.52,199.51S323.55,412.88,213.36,412.88,13.85,323.55,13.85,213.36,103.17,13.85,213.36,13.85m0-13.85a213.41,213.41,0,0,0-83.05,410A213.41,213.41,0,0,0,296.41,16.77,212,212,0,0,0,213.36,0Z"/><path class="cls-1" d="M213.36,111.51A101.86,101.86,0,1,1,111.51,213.36,101.86,101.86,0,0,1,213.36,111.51m0-11.55a113.39,113.39,0,1,0,80.19,33.21A112.66,112.66,0,0,0,213.36,100Z"/><path class="cls-1" d="M78.2,143.55c1.9,1.19,4.31.2,10.07-9,5.38-8.62,5.62-10.26,4.17-11.17-1.68-1-2.71.1-8.72,9.11C72.13,149.8,65,154.75,55.87,149.06c-8.63-5.37-7-16.13,2.59-31.59,9.53-15.28,18.6-21.6,28.63-15.35L78,116.68c-2.07-1.29-4.62,1.79-9.05,8.9-4.26,6.83-4.8,8.44-3.29,9.38s2.33-.49,8-8.79c10.25-15.07,17.28-24,27.53-17.59,10.81,6.74,8,17.41-2.06,33.48s-18.35,23.31-30,16.05Z"/><path class="cls-1" d="M98.89,99.92c-9.17-13.15-6.4-24.41,10.27-36s28.23-10.27,37.36,2.83,6.42,24.56-10.19,36.14S108.1,113.13,98.89,99.92Zm33.56-23.39c-2.76-4-6.65-6.54-15-.73s-7.29,10.31-4.5,14.31,6.79,6.62,15.07.84S135.24,80.53,132.45,76.53Z"/><path class="cls-1" d="M201.49,62.05l3.42,14.11L158.74,87.37,147.85,42.48l16.67-4L172,69.21Z"/><path class="cls-1" d="M245.05,72.9l-19.43-3-4.4,7.73-18.65-2.9,26-42.71,25.17,3.91L265.56,84.5l-18.65-2.9Zm-2.61-12.43L239.33,45.7l-7.45,13.13Z"/><path class="cls-1" d="M308.73,97.82l-.14,15.58-17.21-10.82L291.73,90l-8.54-5.38-5.77,9.16L262.9,84.65l24.61-39.09,30.71,19.33c8.88,5.59,11,15.67,5.55,24.39C320.19,95,314.61,98,308.73,97.82ZM290.92,72.34l13.4,8.44c1.46.91,3.24,2,4.93-.64s-.1-3.81-1.55-4.72L294.29,67Z"/><path class="cls-1" d="M337.79,140.86l-11-16.28-8.66,2L307.5,111l49-10.08L370.77,122l-27.5,41.76-10.59-15.62Zm7.31-10.38,8.69-12.35-14.69,3.5Z"/><path class="cls-1" d="M165.14,307.83l-16.53-9.5,31.55-55.23c-.42-.47-.84-.93-1.25-1.4L124,273.22,114,257l57.56-33.48h-65.8V203.74H169c.16-.59.31-1.19.46-1.78L114.25,169.8l9.39-16.66,55,31.62,1.65-1.2-31.77-55.24,16.57-9.6,32.17,55.46,1.44-.31V110.15h18.71a51.46,51.46,0,0,1,.74,6.2c.1,9.91-.39,19.84.17,29.72.77,13.33-1.25,23.82-12.17,34.44-20.41,19.85-16.63,53.17,5.83,71.94,4.78,4,6.52,7.95,6.37,14-.39,16.52-.13,33.06-.13,50.11H199.38V253.05l-2-.71Z"/><path class="cls-1" d="M321,213.9c-15.09,2.82-30.09,6.35-45.3,8.18-8.28,1-12.37,4.74-14.87,11.92a44.8,44.8,0,0,1-5.63,10.26c-2.59-21.2-20-24.61-37.36-31,17-6.68,34.94-9,36.41-31,2,1.72,2.93,2.12,3.08,2.7,3.63,14.88,13.73,20.11,28.3,21.14,11.76.84,23.35,4.14,35,6.34Z"/><path class="cls-1" d="M225.73,262.08c7.59.91,14.43,1.61,21.21,2.65a6.31,6.31,0,0,1,4,2.68c5.88,9.92,11.54,20,17.74,30.77l-16.53,9.71Z"/><path class="cls-1" d="M225.61,164.68l26.57-46,16.59,9.61c-6.22,10.78-12.14,21.28-18.41,31.57-.78,1.28-3.38,1.71-5.22,2C239.18,162.87,233.17,163.62,225.61,164.68Z"/><path class="cls-1" d="M268.71,167.49l24.76-14.28c3.32,5.65,6.31,10.76,9.64,16.44l-18.55,11Z"/><path class="cls-1" d="M303.2,256.92l-9.58,16.54-24.9-14.32L284.53,246Z"/><path class="cls-1" d="M69.32,247.53a8.92,8.92,0,0,1-10.46-8l-1.34-10-5.64.76-1.21-8.94,24.07-3.25,2.55,18.91A8.91,8.91,0,0,1,69.32,247.53Zm-1.21-8.94c1.65-.22,1.5-1.32,1.38-2.22l-1.11-8.25-3.3.45,1.11,8.25C66.31,237.71,66.46,238.81,68.11,238.59Z"/><path class="cls-1" d="M71.42,277.29l-5,6.47-3.75-10,4.14-5.15-1.86-5-5.33,2-3.16-8.44,22.73-8.52,6.7,17.85a9.41,9.41,0,0,1-14.45,10.76ZM72.07,261,75,268.76c.31.84.7,1.88,2.26,1.3s1.17-1.63.85-2.47l-2.92-7.79Z"/><path class="cls-1" d="M79.93,283.86c7-4.68,12.89-3.1,18.82,5.79s5.09,14.94-1.89,19.6-13,3.11-18.88-5.75S72.89,288.55,79.93,283.86Zm11.93,17.89c2.1-1.41,3.51-3.43.54-7.87s-5.34-3.94-7.47-2.52-3.55,3.49-.61,7.91S89.72,303.17,91.86,301.75Z"/><path class="cls-1" d="M121.62,333.06c-5.75,6.16-11.92,6-19.2-.78s-7.88-12.91-2.11-19.1l6.6,6.15c-1.78,1.9-2.65,4.22.72,7.37s5.64,2.08,7.39.21l3.06-3.27-5.76-5.38,5.21-5.58,12.35,11.53Z"/><path class="cls-1" d="M136.53,336.34l-1.15,1.94,14.33,8.48-3,5.07-14.33-8.47-1.15,1.94,14.33,8.47-3.53,6-22.09-13.06,12.36-20.9,22.09,13.07-3.53,6Z"/><path class="cls-1" d="M170.88,344.34c9.23,3,13,7.79,11,15.2l-8.77-2.85c.37-2.28-1-3.92-4.59-5.09-5.08-1.65-6.63.22-7.42,2.66s-.62,4.94,4.43,6.57c3.63,1.18,5.67.61,6.72-1.5l8.77,2.85c-2.73,7.2-8.58,8.92-17.85,5.91-10.16-3.29-13.26-8.56-10.65-16.61S160.72,341.05,170.88,344.34Z"/><path class="cls-1" d="M216,359.73l-10.37-.86-1.38,16.58-9-.74,1.37-16.59-10.36-.86.63-7.6,29.72,2.46Z"/><path class="cls-1" d="M261.42,363.91l-10,2.82-.41,4.66-9.54,2.7,3.06-26.1,12.88-3.65L273.75,365l-9.54,2.7Zm-4-5.36-4.73-6.38-.68,7.91Z"/><path class="cls-1" d="M291.74,355.89c-9.35,5.15-15.32,3.81-19.41-3.6l-5.84-10.61,7.9-4.35,5.84,10.6c1.26,2.28,3.18,3.84,7.83,1.27s4.35-5,3.11-7.29l-5.84-10.61,7.9-4.35,5.84,10.61C303.14,344.94,301.07,350.75,291.74,355.89Z"/><path class="cls-1" d="M324.86,321.94l7.86,2.29-7.92,7.16-6.31-2L314.55,333l3.81,4.22-6.69,6-16.27-18,14.16-12.78a9.4,9.4,0,0,1,15.3,9.5Zm-15.42,5.37,6.17-5.57c.67-.61,1.5-1.35.38-2.59s-1.94-.49-2.61.11l-6.17,5.58Z"/><path class="cls-1" d="M327.86,311.61c-6.91-4.82-7.59-10.88-1.48-19.64s12.05-10.2,18.94-5.4,7.63,10.95,1.54,19.68S334.81,316.45,327.86,311.61ZM340.16,294c-2.08-1.45-4.47-2-7.52,2.36s-1.73,6.41.38,7.88,4.55,2,7.58-2.32S342.27,295.44,340.16,294Z"/><path class="cls-1" d="M361.42,261.49l8.07-1.41-4,9.92L359,271,357,276l5.28,2.1L359,286.43l-22.55-9,7.07-17.71a9.4,9.4,0,0,1,17.92,1.77ZM350,273.12l3.08-7.73c.34-.84.75-1.87-.8-2.49s-2,.42-2.29,1.25l-3.08,7.74Z"/><path class="cls-1" d="M370.46,230.27,369,240.51l4.1,2.25-1.37,9.82-22.65-13.31L351,226l25.43-6.61L375,229.23ZM364,231.74l-7.74,1.76,7,3.81Z"/></g></g></svg>