<svg xmlns="http://www.w3.org/2000/svg" viewBox="0 0 426.72 426.72"><defs><style>.cls-1{fill:#009245;}</style></defs><g id="Camada_2" data-name="Camada 2"><g id="Camada_1-2" data-name="Camada 1"><path class="cls-1" d="M213.36,111.51A101.86,101.86,0,1,1,111.51,213.36,101.86,101.86,0,0,1,213.36,111.51m0-11.55a113.39,113.39,0,1,0,80.19,33.21A112.66,112.66,0,0,0,213.36,100Z"/><path class="cls-1" d="M213.36,13.85c110.19,0,199.52,89.32,199.52,199.51S323.55,412.88,213.36,412.88,13.85,323.55,13.85,213.36,103.17,13.85,213.36,13.85m0-13.85a213.41,213.41,0,0,0-83.05,410A213.41,213.41,0,0,0,296.41,16.77,212,212,0,0,0,213.36,0Z"/><path class="cls-1" d="M50.05,135.54l33.86,27-6.08,21.19-43,4.89,4.5-15.7L71,170.25l-25.45-19Z"/><path class="cls-1" d="M74.12,120l3,2.16L93.06,99.8l7.91,5.63L85.05,127.75l3,2.16L104,107.59l9.3,6.63L88.75,148.63,56.2,125.42,80.74,91,90,97.64Z"/><path class="cls-1" d="M137.56,82.06l12.49,5.07-14.18,10.4-10-4.28-7,5.17,5.53,7.55-12,8.78L88.75,82.51l25.33-18.57c7.32-5.37,16.13-3.89,21.39,3.3C138.91,71.93,139.59,77.39,137.56,82.06Zm-26.17,6.22,11-8.1c1.2-.87,2.68-2,1.06-4.17s-3.1-1.13-4.3-.25l-11,8.1Z"/><path class="cls-1" d="M189.45,54.49c4,13-2.86,21.77-12.09,24.58L149,87.74,137.3,49.5l28.4-8.66C174.93,38,185.48,41.49,189.45,54.49Zm-14.21,4.33c-2.16-7.1-7.19-5.57-10.24-4.63l-9.84,3,4.33,14.2,9.84-3C172.38,67.46,177.41,65.92,175.24,58.82Z"/><path class="cls-1" d="M225,68.18l-17-.66-3,7.09L188.66,74l18.08-39.32,22,.85,15,40.59-16.32-.63Zm-3.49-10.43-4.15-12.39-5.09,12Z"/><path class="cls-1" d="M305.08,60.16,289,96.76l-17.77-7.82-6.29-28.53L255.42,82l-13.59-6,16.09-36.59,17.78,7.81L282,75.78l9.49-21.59Z"/><path class="cls-1" d="M342.16,110.83,329.88,98.89l-19.12,19.65-10.64-10.36,19.12-19.65L307,76.59l8.76-9,35.2,34.25Z"/><path class="cls-1" d="M329.21,144l-8-12.54L355,110l8,12.54Z"/><path class="cls-1" d="M349.05,173.93l-5.29-16.17-7.7-.36L331,141.88l43.14,3.29,6.87,21L348.15,194.3l-5.08-15.52Zm8.56-6.89,10.18-8.2-13.06-.59Z"/><path class="cls-1" d="M170.7,234.94c-6.19,2.31-9.74,7.76-10,14.51-.12,3.51-.07,7.18-1.08,10.47-2.61,8.55-8.67,13.47-17.44,15.41-4.8,1.06-6.85,4.26-6.4,8.77.39,3.89,2.81,6,6.47,6.67,4.28.72,7.64-1.72,9-6.18,4.39-14.12,10.4-18.58,25.14-18.64a16.29,16.29,0,0,0,15.44-10.27c2.42-5.81.92-12.4-3.9-17.26C183,233.47,177.15,232.53,170.7,234.94Z"/><path class="cls-1" d="M142.26,152.32c13.22,2.14,19.49,13.81,18.61,24.76a14.91,14.91,0,0,0,9.37,15.38A15.76,15.76,0,0,0,188.42,189c4.68-4.66,5.87-10.91,3.28-17.33a15.89,15.89,0,0,0-15.12-9.93c-14.75.1-20.82-4.41-25.2-18.52-1.25-4-3.75-6.83-8.39-6.38-4.22.4-6.75,2.85-7.05,7.17C135.63,148.53,137.88,151.61,142.26,152.32Z"/><path class="cls-1" d="M183.6,130.28a7.88,7.88,0,0,0-.22-11.18,7.56,7.56,0,0,0-11.09.21,7.47,7.47,0,0,0,.11,11.09A7.82,7.82,0,0,0,183.6,130.28Z"/><path class="cls-1" d="M130.6,182.56c2.85-2.89,2.71-8.49-.3-11.3a7.8,7.8,0,0,0-11.16.57c-3,3.18-3,8.45,0,11.23S127.71,185.48,130.6,182.56Z"/><path class="cls-1" d="M171.28,296.28a8.2,8.2,0,0,0,0,11.33,7.52,7.52,0,0,0,10.79.1c3.42-3.18,3.65-7.86.56-11.15A8.44,8.44,0,0,0,171.28,296.28Z"/><path class="cls-1" d="M119.13,243.36a7.81,7.81,0,0,0-.23,10.87c3.18,3.47,7.59,3.63,11,.39s3.64-7.46.79-10.7A8,8,0,0,0,119.13,243.36Z"/><path class="cls-1" d="M298.64,210.14c-3-11.34-17.18-16.1-25.66-7.53-10.43,10.55-30,9.22-40.62,1.7-17-12.07-20.07-36.23-6.83-48.69,6.27-5.9,5.53-16.41-.57-22.2a17.49,17.49,0,0,0-23.2,0c-6.1,5.79-6.84,16.3-.57,22.2,13.24,12.46,10.19,36.62-6.83,48.69-10.6,7.52-30.19,8.85-40.62-1.7-8.48-8.57-22.62-3.81-25.66,7.53-1.87,7,1,13.87,7.29,17.85,6.14,3.86,13.48,2.78,19.59-2.29,3.39-2.81,7.07-5.85,11.15-7.16,13.84-4.47,30.24,2.28,38.07,15,8.24,13.32,6.92,28.63-3.43,40-6,6.6-4.8,17.81,2.52,23a17.88,17.88,0,0,0,20.18,0c7.32-5.18,8.55-16.39,2.52-23-10.35-11.34-11.67-26.65-3.43-40,7.83-12.68,24.23-19.43,38.07-15,4.08,1.31,7.76,4.35,11.16,7.16,6.1,5.07,13.44,6.15,19.58,2.29C297.68,224,300.51,217.09,298.64,210.14Z"/><path class="cls-1" d="M284.5,275.33c-8.77-1.94-14.83-6.86-17.44-15.41-1-3.29-1-7-1.08-10.47-.22-6.75-3.77-12.2-10-14.51-6.45-2.41-12.29-1.47-17.28,3.48-4.83,4.86-6.32,11.45-3.91,17.26A16.29,16.29,0,0,0,250.27,266c14.74.06,20.75,4.52,25.14,18.64,1.38,4.46,4.74,6.9,9,6.18,3.66-.62,6.08-2.78,6.47-6.67C291.35,279.59,289.3,276.39,284.5,275.33Z"/><path class="cls-1" d="M256.48,192.46a14.91,14.91,0,0,0,9.37-15.38c-.88-11,5.39-22.62,18.61-24.76,4.38-.71,6.63-3.79,6.32-8.32-.3-4.32-2.83-6.77-7-7.17-4.63-.45-7.14,2.35-8.39,6.38-4.38,14.11-10.45,18.62-25.2,18.52A15.89,15.89,0,0,0,235,171.66c-2.59,6.42-1.4,12.67,3.28,17.33A15.76,15.76,0,0,0,256.48,192.46Z"/><path class="cls-1" d="M254.32,130.4a7.48,7.48,0,0,0,.12-11.09,7.57,7.57,0,0,0-11.1-.21,7.88,7.88,0,1,0,11,11.3Z"/><path class="cls-1" d="M307.56,183.06c3.06-2.78,3.06-8.05,0-11.23a7.8,7.8,0,0,0-11.16-.57c-3,2.81-3.15,8.41-.3,11.3S304.64,185.73,307.56,183.06Z"/><path class="cls-1" d="M244.05,296.56c-3.09,3.29-2.86,8,.56,11.15a7.52,7.52,0,0,0,10.79-.1,8.2,8.2,0,0,0,0-11.33A8.44,8.44,0,0,0,244.05,296.56Z"/><path class="cls-1" d="M307.59,243.36a8,8,0,0,0-11.59.56c-2.85,3.24-2.53,7.59.79,10.7s7.85,3.08,11-.39A7.81,7.81,0,0,0,307.59,243.36Z"/><path class="cls-1" d="M69.32,247.53a8.92,8.92,0,0,1-10.46-8l-1.34-10-5.64.76-1.21-8.94,24.07-3.25,2.55,18.91A8.91,8.91,0,0,1,69.32,247.53Zm-1.21-8.94c1.65-.22,1.5-1.32,1.38-2.22l-1.11-8.25-3.3.45,1.11,8.25C66.31,237.71,66.46,238.81,68.11,238.59Z"/><path class="cls-1" d="M71.42,277.29l-5,6.47-3.75-10,4.14-5.15-1.86-5-5.33,2-3.16-8.44,22.73-8.52,6.7,17.85a9.41,9.41,0,0,1-14.45,10.76ZM72.07,261,75,268.76c.31.84.7,1.88,2.26,1.3s1.17-1.63.85-2.47l-2.92-7.79Z"/><path class="cls-1" d="M79.92,283.86c7-4.68,12.9-3.1,18.83,5.79s5.09,14.94-1.89,19.6-13,3.11-18.89-5.75S72.88,288.55,79.92,283.86Zm11.93,17.89c2.11-1.41,3.52-3.43.55-7.87s-5.34-3.94-7.47-2.52-3.55,3.49-.61,7.91S89.72,303.17,91.85,301.75Z"/><path class="cls-1" d="M121.62,333.06c-5.75,6.16-11.92,6-19.2-.78s-7.88-12.91-2.1-19.1l6.59,6.15c-1.78,1.9-2.65,4.22.72,7.37s5.64,2.08,7.39.21l3.06-3.27-5.76-5.38,5.21-5.58,12.35,11.53Z"/><path class="cls-1" d="M136.53,336.34l-1.15,1.94,14.33,8.48-3,5.07-14.33-8.47-1.15,1.94,14.33,8.47-3.53,6-22.09-13.06,12.36-20.9,22.09,13.07-3.53,6Z"/><path class="cls-1" d="M170.88,344.34c9.23,3,13,7.79,11,15.2l-8.78-2.85c.38-2.28-.95-3.92-4.58-5.09-5.08-1.65-6.63.22-7.42,2.66s-.62,4.94,4.43,6.57c3.63,1.18,5.67.61,6.72-1.5l8.77,2.85c-2.73,7.2-8.58,8.92-17.85,5.91-10.16-3.29-13.26-8.56-10.65-16.61S160.71,341.05,170.88,344.34Z"/><path class="cls-1" d="M216,359.73l-10.37-.86-1.38,16.58-9-.74,1.38-16.59-10.37-.86.63-7.6,29.73,2.46Z"/><path class="cls-1" d="M261.42,363.91l-10,2.82-.41,4.66-9.54,2.7,3.06-26.1,12.88-3.65L273.75,365l-9.54,2.7Zm-4-5.36-4.73-6.38-.68,7.91Z"/><path class="cls-1" d="M291.74,355.89c-9.35,5.15-15.32,3.81-19.41-3.6l-5.84-10.61,7.9-4.35,5.84,10.6c1.26,2.28,3.18,3.84,7.83,1.27s4.35-5,3.11-7.29l-5.84-10.61,7.9-4.35,5.84,10.61C303.13,344.94,301.07,350.75,291.74,355.89Z"/><path class="cls-1" d="M324.86,321.94l7.86,2.29-7.93,7.16-6.3-2L314.55,333l3.81,4.22-6.69,6-16.27-18,14.16-12.78a8.89,8.89,0,0,1,13.12.67A9,9,0,0,1,324.86,321.94Zm-15.42,5.37,6.17-5.58c.67-.6,1.5-1.34.38-2.58s-1.94-.49-2.61.11l-6.18,5.58Z"/><path class="cls-1" d="M327.86,311.61c-6.91-4.82-7.59-10.88-1.48-19.64s12.05-10.2,18.94-5.4,7.63,10.95,1.54,19.68S334.81,316.45,327.86,311.61ZM340.16,294c-2.08-1.45-4.47-2-7.52,2.36s-1.72,6.41.38,7.88,4.55,2,7.58-2.32S342.27,295.44,340.16,294Z"/><path class="cls-1" d="M361.42,261.49l8.07-1.41-4,9.92L359,271,357,276l5.28,2.1L359,286.43l-22.55-9,7.07-17.71a9.4,9.4,0,0,1,17.92,1.77ZM350,273.12l3.08-7.73c.34-.84.75-1.87-.8-2.49s-2,.42-2.29,1.25l-3.08,7.74Z"/><path class="cls-1" d="M370.46,230.27,369,240.51l4.1,2.25-1.37,9.82-22.65-13.31L351,226l25.44-6.61L375,229.23ZM364,231.74l-7.74,1.76,7,3.81Z"/></g></g></svg>